<svg width="714" height="583" viewBox="0 0 714 583" fill="none" xmlns="http://www.w3.org/2000/svg">
<g clip-path="url(#clip0_5_4)">
<path opacity="0.1" d="M479.92 102.817C426.967 101.014 376.492 84.269 328.368 65.9522C280.244 47.6355 232.545 27.3373 180.831 17.6314C147.582 11.3819 109.557 10.5029 82.7726 27.963C56.9917 44.7602 48.6643 73.7586 44.185 100.664C40.8159 120.91 38.8615 142.214 48.0711 161.171C54.4821 174.326 65.8592 185.387 73.7303 197.991C101.108 241.842 81.7536 295.921 52.0789 338.774C38.1618 358.886 22.0164 378.022 11.2782 399.408C0.539952 420.794 -4.4337 445.293 4.96606 467.103C14.2822 488.705 36.4735 504.958 60.5205 516.377C109.36 539.551 166.907 546.18 223.024 549.979C347.244 558.3 472.133 554.694 596.679 551.089C642.773 549.748 689.072 548.4 734.413 541.406C759.593 537.525 785.595 531.372 803.877 516.519C827.08 497.658 832.837 465.733 817.285 442.082C791.2 402.425 719.082 392.57 700.845 350.007C690.814 326.58 701.119 300.48 715.705 278.751C746.984 232.144 799.428 191.249 802.189 137.968C804.09 101.372 778.88 64.7306 739.896 47.412C699.042 29.2442 642.385 31.5385 612.247 61.5648C581.211 92.4999 526.668 104.403 479.92 102.817Z" fill="#6C63FF"/>
<path d="M184.231 540.072C184.231 540.072 142.403 509.1 134.502 469.703C131.297 453.156 122.702 438.073 110.006 426.715C103.932 421.373 97.3723 416.586 90.408 412.414" stroke="#535461" stroke-width="2" stroke-miterlimit="10"/>
<path d="M85.2899 387.594C88.9555 392.451 90.6134 413.032 90.6134 413.032C90.6134 413.032 71.0153 405.471 67.3421 400.622C65.5783 398.291 64.8322 395.369 65.2679 392.499C65.7036 389.629 67.2854 387.046 69.6654 385.318C72.0455 383.591 75.0287 382.86 77.9588 383.287C80.889 383.713 83.526 385.263 85.2899 387.594Z" fill="#6C63FF"/>
<path d="M120.44 403.743C120.82 409.769 110.805 427.93 110.805 427.93C110.805 427.93 98.5378 411.14 98.1499 405.114C98.0024 402.241 99.0166 399.427 100.973 397.281C102.929 395.136 105.669 393.831 108.6 393.651C111.531 393.471 114.417 394.429 116.632 396.318C118.846 398.207 120.212 400.875 120.433 403.743H120.44Z" fill="#6C63FF"/>
<path d="M154.51 450.165C151.742 455.557 133.726 466.284 133.726 466.284C133.726 466.284 131.802 445.725 134.57 440.332C135.933 437.796 138.258 435.885 141.044 435.011C143.831 434.137 146.856 434.369 149.47 435.658C152.083 436.946 154.076 439.188 155.018 441.902C155.961 444.615 155.779 447.582 154.51 450.165Z" fill="#6C63FF"/>
<path d="M172.222 490.954C170.42 496.727 154.518 510.277 154.518 510.277C154.518 510.277 149.065 490.336 150.868 484.556C151.734 481.782 153.69 479.459 156.305 478.098C158.92 476.737 161.98 476.448 164.811 477.297C167.643 478.145 170.015 480.061 171.405 482.622C172.795 485.184 173.089 488.181 172.222 490.954Z" fill="#6C63FF"/>
<path d="M92.6743 442.529C98.7583 443.334 117.991 434.827 117.991 434.827C117.991 434.827 101.762 421.658 95.6479 420.853C92.7132 420.467 89.742 421.238 87.3881 422.998C85.0341 424.757 83.4902 427.361 83.0958 430.235C82.7015 433.11 83.4892 436.02 85.2855 438.325C87.0818 440.631 89.7396 442.143 92.6743 442.529Z" fill="#6C63FF"/>
<path d="M114.006 489.986C120.09 488.966 135.81 475.222 135.81 475.222C135.81 475.222 116.295 467.416 110.219 468.437C108.764 468.67 107.371 469.184 106.12 469.947C104.869 470.711 103.784 471.71 102.93 472.886C102.075 474.063 101.466 475.393 101.139 476.801C100.812 478.209 100.773 479.667 101.024 481.09C101.275 482.513 101.811 483.873 102.602 485.091C103.392 486.31 104.422 487.364 105.63 488.191C106.838 489.018 108.202 489.602 109.642 489.91C111.083 490.219 112.571 490.244 114.022 489.986H114.006Z" fill="#6C63FF"/>
<path d="M141.194 533.331C147.362 533.331 165.233 522.389 165.233 522.389C165.233 522.389 147.354 511.461 141.186 511.461C138.226 511.461 135.386 512.613 133.292 514.664C131.199 516.715 130.022 519.496 130.022 522.396C130.022 525.296 131.199 528.078 133.292 530.128C135.386 532.179 138.226 533.331 141.186 533.331H141.194Z" fill="#6C63FF"/>
<path d="M590.565 272.189C590.565 272.189 616.346 227.458 655.207 214.572C671.526 209.264 685.647 198.916 695.453 185.082C700.052 178.468 704.021 171.454 707.309 164.128" stroke="#535461" stroke-width="2" stroke-miterlimit="10"/>
<path d="M731.706 155.934C727.28 160.136 706.678 164.486 706.678 164.486C706.678 164.486 711.735 144.448 716.161 140.24C718.298 138.281 721.134 137.221 724.06 137.29C726.986 137.359 729.767 138.551 731.805 140.608C733.842 142.666 734.974 145.425 734.955 148.291C734.937 151.158 733.77 153.902 731.706 155.934Z" fill="#6C63FF"/>
<path d="M720.055 192.158C713.971 193.335 694.297 186.02 694.297 186.02C694.297 186.02 709.659 171.868 715.705 170.713C717.157 170.397 718.658 170.369 720.121 170.63C721.584 170.89 722.979 171.435 724.225 172.23C725.47 173.026 726.54 174.058 727.373 175.265C728.206 176.471 728.784 177.829 729.074 179.257C729.364 180.686 729.359 182.157 729.061 183.584C728.762 185.01 728.175 186.364 727.335 187.566C726.495 188.768 725.418 189.793 724.168 190.582C722.918 191.37 721.52 191.906 720.055 192.158Z" fill="#6C63FF"/>
<path d="M677.65 231.399C671.824 229.425 658.584 213.365 658.584 213.365C658.584 213.365 679.117 208.762 684.958 210.736C686.361 211.192 687.658 211.916 688.773 212.867C689.888 213.818 690.8 214.976 691.454 216.275C692.108 217.573 692.493 218.986 692.585 220.431C692.678 221.877 692.476 223.326 691.992 224.694C691.508 226.062 690.751 227.323 689.766 228.402C688.781 229.482 687.586 230.359 686.252 230.983C684.918 231.607 683.47 231.965 681.993 232.036C680.517 232.108 679.04 231.891 677.65 231.399Z" fill="#6C63FF"/>
<path d="M638.682 254.014C632.598 253.03 616.81 239.362 616.81 239.362C616.81 239.362 636.271 231.421 642.347 232.404C645.272 232.876 647.886 234.465 649.613 236.824C651.341 239.183 652.042 242.117 651.561 244.982C651.08 247.846 649.457 250.406 647.048 252.099C644.64 253.791 641.644 254.477 638.72 254.006L638.682 254.014Z" fill="#6C63FF"/>
<path d="M677.117 170.355C677.11 176.396 688.297 193.924 688.297 193.924C688.297 193.924 699.468 176.419 699.468 170.385C699.507 168.926 699.247 167.473 698.704 166.114C698.161 164.754 697.345 163.515 696.305 162.469C695.264 161.424 694.021 160.592 692.648 160.025C691.274 159.457 689.799 159.165 688.308 159.165C686.817 159.165 685.342 159.457 683.968 160.025C682.595 160.592 681.352 161.424 680.311 162.469C679.271 163.515 678.455 164.754 677.912 166.114C677.369 167.473 677.109 168.926 677.148 170.385L677.117 170.355Z" fill="#6C63FF"/>
<path d="M631.921 197.365C633.761 203.13 649.762 216.576 649.762 216.576C649.762 216.576 655.086 196.598 653.23 190.832C652.268 188.161 650.285 185.96 647.699 184.692C645.112 183.425 642.125 183.189 639.365 184.036C636.605 184.882 634.289 186.745 632.903 189.231C631.517 191.718 631.171 194.633 631.936 197.365H631.921Z" fill="#6C63FF"/>
<path d="M591.713 229.522C592.535 235.481 605.98 251.399 605.98 251.399C605.98 251.399 614.658 232.591 613.836 226.609C613.673 225.16 613.216 223.757 612.492 222.484C611.767 221.21 610.79 220.091 609.617 219.193C608.445 218.295 607.101 217.635 605.664 217.253C604.227 216.871 602.727 216.775 601.252 216.969C599.777 217.163 598.356 217.644 597.073 218.384C595.791 219.124 594.672 220.108 593.783 221.277C592.895 222.447 592.254 223.779 591.898 225.195C591.543 226.611 591.48 228.082 591.713 229.522Z" fill="#6C63FF"/>
<path opacity="0.25" d="M731.706 155.934C727.28 160.136 706.678 164.486 706.678 164.486C706.678 164.486 711.735 144.448 716.161 140.24C718.298 138.281 721.134 137.221 724.06 137.29C726.986 137.359 729.767 138.551 731.805 140.608C733.842 142.666 734.974 145.425 734.955 148.291C734.937 151.158 733.77 153.902 731.706 155.934Z" fill="black"/>
<path opacity="0.25" d="M720.055 192.158C713.971 193.335 694.297 186.02 694.297 186.02C694.297 186.02 709.659 171.868 715.705 170.713C717.157 170.397 718.658 170.369 720.121 170.63C721.584 170.89 722.979 171.435 724.225 172.23C725.47 173.026 726.54 174.058 727.373 175.265C728.206 176.471 728.784 177.829 729.074 179.257C729.364 180.686 729.359 182.157 729.061 183.584C728.762 185.01 728.175 186.364 727.335 187.566C726.495 188.768 725.418 189.793 724.168 190.582C722.918 191.37 721.52 191.906 720.055 192.158Z" fill="black"/>
<path opacity="0.25" d="M677.65 231.399C671.824 229.425 658.584 213.365 658.584 213.365C658.584 213.365 679.117 208.762 684.958 210.736C686.361 211.192 687.658 211.916 688.773 212.867C689.888 213.818 690.8 214.976 691.454 216.275C692.108 217.573 692.493 218.986 692.585 220.431C692.678 221.877 692.476 223.326 691.992 224.694C691.508 226.062 690.751 227.323 689.766 228.402C688.781 229.482 687.586 230.359 686.252 230.983C684.918 231.607 683.47 231.965 681.993 232.036C680.517 232.108 679.04 231.891 677.65 231.399Z" fill="black"/>
<path opacity="0.25" d="M638.682 254.014C632.598 253.03 616.81 239.362 616.81 239.362C616.81 239.362 636.271 231.421 642.347 232.404C645.272 232.876 647.886 234.465 649.613 236.824C651.341 239.183 652.042 242.117 651.561 244.982C651.08 247.846 649.457 250.406 647.048 252.099C644.64 253.791 641.644 254.477 638.72 254.006L638.682 254.014Z" fill="black"/>
<path opacity="0.25" d="M677.117 170.355C677.11 176.396 688.297 193.924 688.297 193.924C688.297 193.924 699.468 176.419 699.468 170.385C699.507 168.926 699.247 167.473 698.704 166.114C698.161 164.754 697.345 163.515 696.305 162.469C695.264 161.424 694.021 160.592 692.648 160.025C691.274 159.457 689.799 159.165 688.308 159.165C686.817 159.165 685.342 159.457 683.968 160.025C682.595 160.592 681.352 161.424 680.311 162.469C679.271 163.515 678.455 164.754 677.912 166.114C677.369 167.473 677.109 168.926 677.148 170.385L677.117 170.355Z" fill="black"/>
<path opacity="0.25" d="M631.921 197.365C633.761 203.13 649.762 216.576 649.762 216.576C649.762 216.576 655.086 196.598 653.23 190.832C652.268 188.161 650.285 185.96 647.699 184.692C645.112 183.425 642.125 183.189 639.365 184.036C636.605 184.882 634.289 186.745 632.903 189.231C631.517 191.718 631.171 194.633 631.936 197.365H631.921Z" fill="black"/>
<path opacity="0.25" d="M591.713 229.522C592.535 235.481 605.98 251.399 605.98 251.399C605.98 251.399 614.658 232.591 613.836 226.609C613.673 225.16 613.216 223.757 612.492 222.484C611.767 221.21 610.79 220.091 609.617 219.193C608.445 218.295 607.101 217.635 605.664 217.253C604.227 216.871 602.727 216.775 601.252 216.969C599.777 217.163 598.356 217.644 597.073 218.384C595.791 219.124 594.672 220.108 593.783 221.277C592.895 222.447 592.254 223.779 591.898 225.195C591.543 226.611 591.48 228.082 591.713 229.522Z" fill="black"/>
<path d="M592.048 271.302C592.048 271.302 597.113 220.173 627.274 192.985C639.996 181.654 648.625 166.59 651.869 150.05C653.345 142.187 654.081 134.208 654.067 126.214" stroke="#535461" stroke-width="2" stroke-miterlimit="10"/>
<path d="M672.972 108.962C670.691 114.563 653.625 126.72 653.625 126.72C653.625 126.72 649.96 106.392 652.264 100.791C653.373 98.1008 655.528 95.9529 658.254 94.8193C660.981 93.6857 664.055 93.6592 666.801 94.7458C669.547 95.8323 671.74 97.9429 672.897 100.613C674.055 103.283 674.082 106.295 672.972 108.984V108.962Z" fill="#6C63FF"/>
<path d="M677.315 146.743C672.273 150.214 651.23 151.353 651.23 151.353C651.23 151.353 659.428 132.329 664.47 128.858C665.666 127.981 667.029 127.349 668.479 126.997C669.929 126.646 671.436 126.583 672.911 126.813C674.386 127.042 675.799 127.559 677.067 128.334C678.334 129.108 679.43 130.123 680.289 131.319C681.149 132.516 681.755 133.869 682.071 135.298C682.387 136.728 682.407 138.206 682.13 139.643C681.852 141.081 681.283 142.449 680.456 143.667C679.629 144.885 678.561 145.929 677.315 146.735V146.743Z" fill="#6C63FF"/>
<path d="M654.759 199.466C648.614 199.972 629.86 190.527 629.86 190.527C629.86 190.527 646.743 178.162 652.888 177.655C655.839 177.412 658.767 178.327 661.029 180.199C663.291 182.071 664.701 184.747 664.949 187.637C665.197 190.527 664.263 193.395 662.352 195.611C660.441 197.827 657.709 199.208 654.759 199.451V199.466Z" fill="#6C63FF"/>
<path d="M628.514 235.585C622.544 237.075 602.436 230.915 602.436 230.915C602.436 230.915 616.939 215.935 622.909 214.415C625.775 213.687 628.819 214.104 631.371 215.575C633.923 217.045 635.775 219.448 636.518 222.255C637.261 225.063 636.836 228.044 635.335 230.544C633.833 233.044 631.38 234.857 628.514 235.585Z" fill="#6C63FF"/>
<path d="M629.046 143.852C631.541 149.372 648.986 160.985 648.986 160.985C648.986 160.985 651.952 140.545 649.458 135.026C648.215 132.443 645.99 130.439 643.259 129.442C640.528 128.445 637.506 128.534 634.841 129.689C632.176 130.845 630.077 132.976 628.995 135.626C627.912 138.277 627.93 141.237 629.046 143.875V143.852Z" fill="#6C63FF"/>
<path d="M598.9 186.475C602.969 191.011 623.152 196.955 623.152 196.955C623.152 196.955 619.745 176.583 615.677 172.046C614.716 170.944 613.542 170.04 612.222 169.387C610.901 168.733 609.462 168.343 607.986 168.239C606.511 168.135 605.029 168.319 603.627 168.781C602.225 169.243 600.931 169.973 599.819 170.929C598.707 171.885 597.801 173.047 597.152 174.349C596.503 175.652 596.125 177.067 596.04 178.513C595.954 179.96 596.163 181.409 596.654 182.775C597.145 184.142 597.908 185.4 598.9 186.475Z" fill="#6C63FF"/>
<path d="M575.408 231.853C578.633 236.993 597.501 246.192 597.501 246.192C597.501 246.192 597.66 225.552 594.459 220.404C592.865 218.028 590.389 216.353 587.555 215.734C584.722 215.116 581.753 215.603 579.28 217.092C576.807 218.582 575.024 220.956 574.308 223.711C573.592 226.467 574.001 229.388 575.446 231.853H575.408Z" fill="#6C63FF"/>
<path d="M553.263 71.0696C554.525 66.5332 556.046 61.9745 557.111 57.3786C555.833 61.9745 554.304 66.5481 553.263 71.0696Z" fill="url(#paint0_linear_5_4)"/>
<path d="M547.604 114.765C547.498 114.586 547.422 114.407 547.338 114.243C547.338 114.169 547.262 114.109 547.232 114.035C547.066 114.111 546.896 114.179 546.722 114.236C546.388 114.363 546.045 114.482 545.696 114.579C545.346 114.675 545.201 114.728 544.935 114.787C544.714 114.862 544.488 114.919 544.258 114.959L544.319 115.093C544.6 115.033 544.874 114.981 545.156 114.906L545.232 115.83C545.551 115.83 545.848 115.785 546.137 115.785C546.273 115.778 546.41 115.778 546.547 115.785C547.14 115.785 547.658 115.785 548.068 115.785C547.909 115.45 547.741 115.1 547.604 114.765ZM701.986 355.46C698.411 350.745 691.278 300.137 691.278 300.137C691.278 300.137 677.247 264.152 681.072 249.79C684.897 235.429 670.623 198.684 670.623 198.684C670.623 198.684 661.192 194.669 660.683 188.71C660.683 188.71 622.179 176.792 620.376 167.853C618.916 160.523 595.037 155.264 586.458 153.603C583.842 143.264 581.211 133.618 579.272 128.352C578.747 126.713 578.252 125.298 577.796 124.18C574.518 115.986 564.389 115.242 557.042 115.897C556.724 114.501 556.132 113.178 555.301 112.001C555.179 111.597 554.938 111.237 554.609 110.966C554.451 110.834 554.283 110.715 554.107 110.608C553.974 110.367 553.799 110.15 553.589 109.968C553.381 109.784 553.151 109.624 552.905 109.491C552.728 109.397 552.545 109.315 552.357 109.245C551.917 109.081 551.461 108.959 550.996 108.88C550.455 108.771 549.906 108.701 549.354 108.672C550.696 108.097 551.893 107.24 552.859 106.161C553.517 105.404 554.007 104.522 554.297 103.569C554.538 102.777 554.646 101.952 554.616 101.126C554.419 101.466 554.19 101.788 553.932 102.087C554.251 98.787 552.472 95.435 551.452 92.1501C550.218 87.8735 549.989 83.3785 550.783 79.0028C551.802 72.4032 554.327 65.729 556.038 59.0101C556.043 58.973 556.043 58.9355 556.038 58.8984C556.936 55.5616 557.491 52.1456 557.696 48.7009C557.993 41.7511 556.175 34.8162 553.255 28.4847C550.662 22.8757 546.836 17.3561 540.98 15.0767C536.63 13.356 531.756 13.6316 527.071 13.3486C516.561 12.708 506.537 9.08784 496.545 5.79544C486.552 2.50305 476.27 -0.491397 465.752 0.0821653C455.234 0.655728 444.412 5.62411 439.614 14.7415C438.093 17.587 437.218 20.7528 435.4 23.4269C431.993 28.4698 425.894 30.9949 420.807 34.4736C415.719 37.9522 411.239 42.8908 409.399 48.7828C408.394 51.9572 408.252 55.3336 408.988 58.5781C409.154 59.3108 409.367 60.0323 409.627 60.7382C410.349 62.7064 411.475 64.5089 412.935 66.0344C414.037 67.1619 415.303 68.1233 416.692 68.8873C418.437 69.8345 420.304 70.5462 422.244 71.0028C422.175 71.2262 422.107 71.4646 422.031 71.6955C421.909 72.0754 421.803 72.4404 421.689 72.8501C421.438 73.7663 421.202 74.6974 421.004 75.636C420.996 75.7028 420.996 75.7703 421.004 75.8371C420.07 80.074 419.601 84.3965 419.605 88.7311C419.603 90.781 419.71 92.8297 419.924 94.8689C422.966 125.096 448.443 148.94 479.92 150.49C481 150.542 482.087 150.572 483.19 150.572C483.692 150.572 484.186 150.572 484.711 150.572C485.205 151.212 485.692 151.868 486.156 152.508C486.62 153.149 487.046 153.804 487.449 154.445L486.346 153.328L485.244 152.337C484.945 152.739 484.611 153.115 484.247 153.462C483.528 153.214 482.794 153.01 482.049 152.851C478.893 152.166 474.087 151.912 467.76 153.782C461.942 155.488 454.831 158.996 446.511 165.663L405.969 189.499L384.036 202.565L376.135 221.485C376.135 221.485 370.195 243.965 363.587 269.723C363.328 269.798 363.077 269.872 362.826 269.962C362.291 269.902 361.753 269.872 361.214 269.872C357.379 269.864 353.691 271.311 350.923 273.909C348.155 276.508 346.522 280.057 346.369 283.809C333.228 299.452 332.482 315.094 335.57 322.275C335.849 322.948 336.201 323.59 336.619 324.19C338.642 327.05 342.422 334.424 346.255 342.283C346.156 342.931 346.095 343.475 346.065 343.884C346.058 344.018 346.058 344.153 346.065 344.287C346.065 344.287 348.346 378.037 340.741 387.713C339.076 389.821 339.327 392.592 340.741 395.661C345.837 406.701 365.982 421.442 365.982 421.442C365.982 421.442 390.143 421.315 403.604 419.878C403.566 421.204 403.536 422.522 403.505 423.811C403.201 436.831 403.201 447.744 403.201 447.744L402.699 461.398C402.699 461.398 398.136 490.173 395.855 498.106C394.417 503.081 396.075 549.153 397.52 583.023H635.571C638.37 562.985 634.423 502.106 634.423 502.106C634.423 502.106 630.674 486.366 630.537 472.645C630.529 472.63 630.525 472.614 630.525 472.597C630.525 472.58 630.529 472.564 630.537 472.549C630.537 471.349 630.537 470.18 630.582 469.033L632.309 468.973L635.412 468.869H635.693C635.693 468.869 635.769 468.586 635.944 468.124C636.354 466.973 636.914 465.88 637.609 464.869C638.933 462.954 641.001 461.077 644.112 460.951C645.83 460.884 648.492 459.52 651.496 457.509C651.516 457.514 651.537 457.514 651.557 457.509C659.641 452.154 670.326 442.269 672.919 440.645C676.486 438.41 693.567 423.513 693.567 423.513C693.567 423.513 696.114 420.354 698.829 416.548L698.928 416.414C702.305 411.647 705.894 405.948 705.012 404.153C703.491 400.935 706.031 393.241 706.031 393.241C713.963 379.021 705.56 360.175 701.986 355.46ZM554.928 126.348C555.001 126.57 555.047 126.8 555.065 127.033C554.875 126.787 554.685 126.527 554.494 126.288L554.312 126.05L554.183 125.871L554.472 125.484C554.472 125.484 554.472 125.484 554.472 125.536C554.673 125.777 554.827 126.052 554.928 126.348ZM552.373 119.748C551.544 119.912 550.89 120.061 550.464 120.173C549.924 119.234 549.407 118.296 548.943 117.342C550.162 118.035 551.311 118.841 552.373 119.748ZM550.943 120.925C550.941 120.91 550.941 120.895 550.943 120.88L551.004 120.925C551.316 121.126 551.62 121.32 551.901 121.521C552.152 121.7 552.38 121.871 552.608 122.05C552.456 122.311 552.289 122.579 552.122 122.795C551.856 122.385 551.605 121.99 551.361 121.581C551.209 121.417 551.072 121.193 550.943 120.925ZM546.38 111.733C547.849 111.591 549.329 111.591 550.798 111.733C551.004 111.733 551.186 111.77 551.369 111.8C551.781 111.863 552.186 111.965 552.578 112.106C553.477 113.337 554.03 114.778 554.183 116.284L553.772 116.344L553.369 116.418C552.608 116.545 551.848 116.672 551.255 116.791L550.494 116.947C549.483 117.163 548.897 117.327 548.874 117.335C548.776 117.134 548.677 116.947 548.57 116.754C548.403 116.433 548.228 116.106 548.076 115.785C547.924 115.465 547.726 115.1 547.566 114.765C547.46 114.586 547.384 114.407 547.3 114.243C547.3 114.169 547.224 114.109 547.194 114.035C547.149 113.956 547.111 113.874 547.08 113.789C546.616 112.865 546.19 111.942 545.779 111.033C545.734 110.944 545.696 110.847 545.657 110.757L546.235 110.72V110.914L546.38 111.733ZM364.933 573.816C364.872 562.724 364.051 550.724 361.769 539.462C360.796 534.672 359.792 529.882 358.773 525.175C358.514 523.998 358.263 522.836 358.012 521.674L355.67 521.979H355.457C349.069 492.474 342.392 466.478 342.392 466.478C342.392 466.478 329.128 416.876 330.665 412.92C330.862 412.406 330.611 411.021 330.049 408.987C326.839 397.71 313.439 366.633 308.755 356.011C308.755 355.966 308.717 355.914 308.701 355.877C307.941 354.097 307.393 352.897 307.226 352.547L308.329 336.696L308.39 335.743L308.534 333.717L308.473 333.665L308.534 332.726C308.534 332.726 296.959 323.43 277.354 316.718C276.593 316.45 275.787 316.189 274.989 315.936C275.97 309.523 277.27 302.282 278.966 295.228C279.126 294.521 279.301 293.835 279.483 293.143C279.643 292.45 279.825 291.78 280.008 291.102C280.297 289.999 280.609 288.912 280.928 287.839C281.985 287.511 283.027 287.146 284.054 286.759L284.449 286.61C297.097 281.79 307.533 272.644 313.825 260.866C320.117 249.088 321.839 235.476 318.672 222.55C316.866 215.219 313.531 208.334 308.876 202.326C308.527 201.864 308.154 201.403 307.781 200.948C307.409 200.494 306.96 199.987 306.542 199.525C308.739 194.632 311.333 189.976 311.546 185.216C311.584 184.613 311.584 184.009 311.546 183.406V183.332C311.264 180.27 309.88 177.171 306.656 173.916C301.948 169.142 295.248 166.721 288.548 165.559C281.848 164.397 275.019 164.367 268.281 163.585C257.109 162.274 246.227 158.899 235.055 157.864C221.294 156.616 207.44 158.928 194.878 164.568C186.565 168.292 178.147 174.803 177.645 183.734C177.234 191.116 182.482 198.192 181.158 205.484C179.843 212.65 172.39 218.289 173.044 225.537C173.295 228.367 174.778 230.9 176.633 233.157C177.272 233.902 177.949 234.647 178.649 235.392C181.356 238.2 184.337 240.896 185.851 244.435C185.911 244.584 185.972 244.733 186.025 244.882C187.311 248.375 186.733 252.792 183.554 254.796C183.571 254.809 183.585 254.827 183.592 254.848C183.638 254.908 183.683 254.952 183.721 255.012C183.726 255 183.726 254.987 183.721 254.975C184.848 256.284 186.368 257.211 188.064 257.627L188.71 257.82C188.185 258.379 187.691 258.96 187.189 259.571L186.862 259.995C186.024 261.099 185.262 262.256 184.581 263.459C184.193 264.129 183.82 264.8 183.508 265.47C182.466 267.514 181.711 269.686 181.265 271.928C180.451 276.86 181.599 281.999 180.367 286.826C178.846 292.785 174.032 297.359 171.317 302.893C166.176 313.322 169.089 325.56 170.123 337.076C171.53 352.719 169.249 368.428 166.975 383.967C165.768 392.23 164.562 400.501 163.355 408.779C160.313 429.556 157.271 450.334 154.229 471.111C153.119 478.724 151.803 486.754 146.624 492.631H146.677C146.677 492.631 146.677 492.675 146.624 492.69C148.179 493.356 149.832 493.773 151.522 493.927C158.282 494.59 165.446 491.387 171.53 487.886C176.348 485.159 180.911 482.021 185.166 478.508C184.543 480.742 183.873 483.178 183.158 485.8C183.161 485.825 183.161 485.85 183.158 485.875C174.572 517.905 160.762 576.624 160.762 576.624C160.762 576.624 159.507 579.179 157.879 582.985H372.34C369.83 580.006 367.496 577.153 365.67 574.851L364.933 573.816ZM206.141 277.649C206.194 277.56 206.232 277.478 206.285 277.396C206.285 277.634 206.285 277.865 206.285 278.089C206.285 278.312 206.285 278.513 206.285 278.722C206.285 278.93 206.285 278.908 206.285 279.012C206.285 279.117 206.285 279.012 206.285 279.012C206.285 279.318 206.217 279.623 206.163 279.928C206.163 279.928 206.163 279.966 206.163 279.995L206.924 280.271L207.806 280.629C213.018 282.645 218.296 284.47 223.64 286.104C224.187 286.275 224.742 286.439 225.298 286.595L225.412 287.519C225.549 288.465 225.678 289.426 225.8 290.387C225.8 290.387 225.8 290.431 225.8 290.461C226.142 293.12 226.476 295.772 226.773 298.364C226.773 298.364 212.81 293.15 212.985 301.068C212.977 301.21 212.977 301.351 212.985 301.493C212.97 301.681 212.97 301.871 212.985 302.059C213.114 308.227 215.084 311.884 215.48 313.761C215.456 313.839 215.414 313.91 215.358 313.97C215.021 314.689 214.904 315.489 215.023 316.271C215.01 317.604 215.117 318.935 215.343 320.249C214.932 320.495 214.529 320.741 214.126 320.994C213.822 321.18 213.533 321.389 213.236 321.597C211.37 315.259 208.93 309.096 205.943 303.184C203.852 298.968 201.502 294.573 201.524 289.947C201.524 289.649 201.524 289.344 201.562 289.038C201.647 287.698 201.908 286.373 202.338 285.098C202.513 284.614 202.703 284.137 202.916 283.668C203.413 282.553 203.969 281.464 204.582 280.405C204.977 279.705 205.395 279.012 205.798 278.312C205.928 278.103 206.049 277.887 206.171 277.679L206.141 277.649ZM547.604 114.765C547.498 114.586 547.422 114.407 547.338 114.243C547.338 114.169 547.262 114.109 547.232 114.035C547.066 114.111 546.896 114.179 546.722 114.236C546.388 114.363 546.045 114.482 545.696 114.579C545.346 114.675 545.201 114.728 544.935 114.787L544.258 114.959L544.319 115.093C544.6 115.033 544.874 114.981 545.156 114.906L545.232 115.83C545.551 115.83 545.848 115.785 546.137 115.785H546.547C547.14 115.785 547.658 115.785 548.068 115.785C547.909 115.45 547.741 115.1 547.604 114.765Z" fill="url(#paint1_linear_5_4)"/>
<path d="M381.436 224.173L376.873 226.147C376.873 226.147 347.129 339.325 347.129 348.473C347.129 357.62 410.198 408.518 410.198 408.518L420.038 343.46C420.038 343.46 405.908 194.266 381.436 224.173Z" fill="#E8F5FF"/>
<path d="M519.778 188.173L493.426 174.706C491.95 168.543 489.331 162.698 485.7 157.461C481.844 152.009 476.718 146.653 470.33 143.86C454.185 136.769 538.623 99.5466 538.623 99.5466C539.953 104.018 541.519 108.419 543.315 112.731C547.665 123.249 554.882 136.85 564.183 140.724C579.994 147.316 519.778 188.173 519.778 188.173Z" fill="#FFC1C7"/>
<path opacity="0.1" d="M543.315 112.731C539.707 125.159 532.204 136.164 521.866 144.19C511.528 152.216 498.877 156.858 485.7 157.461C481.844 152.009 476.718 146.653 470.33 143.86C454.185 136.769 538.623 99.5466 538.623 99.5466C539.953 104.018 541.519 108.419 543.315 112.731Z" fill="black"/>
<path d="M545.688 93.9376C545.691 106.127 542.003 118.043 535.092 128.179C528.18 138.315 518.354 146.216 506.858 150.882C495.361 155.549 482.71 156.771 470.504 154.394C458.298 152.017 447.086 146.149 438.286 137.53C429.486 128.912 423.493 117.931 421.065 105.976C418.637 94.0209 419.883 81.6293 424.646 70.3681C429.409 59.107 437.474 49.4822 447.822 42.7111C458.169 35.9399 470.335 32.3266 482.78 32.3281C491.051 32.2906 499.248 33.8585 506.897 36.9413C514.546 40.0241 521.496 44.5607 527.345 50.2891C533.194 56.0174 537.827 62.824 540.975 70.3158C544.123 77.8076 545.725 85.8361 545.688 93.9376Z" fill="#FFC1C7"/>
<path d="M554.768 180.262L537.611 219.473L522.478 245.5H474.034L459.904 209.916L465.63 173.015H502.629L526.516 171.696L534.585 169.059L539.787 171.95L554.768 180.262Z" fill="#575A89"/>
<path opacity="0.1" d="M548.859 127.994C548.859 127.994 559.559 130.228 549.977 137.923C540.395 145.618 507.336 170.087 507.336 170.087C507.336 170.087 518.949 180.218 516.546 192.084L555.019 171.078L561.864 137.469C561.864 137.469 562.632 127.368 548.859 127.994Z" fill="black"/>
<path opacity="0.1" d="M514.903 170.087L490.43 174.043C490.43 174.043 495.48 192.33 492.955 197.521C492.879 197.683 492.815 197.85 492.765 198.021L482.78 224.457L490.263 245.216L516.165 210.617L507.336 197.521C507.336 197.521 516.667 185.41 522.219 181.208C527.771 177.007 514.903 170.087 514.903 170.087Z" fill="black"/>
<path d="M514.903 169.067L490.43 173.015C490.43 173.015 495.48 191.302 492.955 196.494C492.879 196.655 492.815 196.822 492.765 196.993L482.78 223.429L490.263 244.189L516.165 209.566L507.336 196.471C507.336 196.471 516.667 184.359 522.219 180.158C527.771 175.957 514.903 169.067 514.903 169.067Z" fill="#DCE6F2"/>
<path d="M549.886 126.02C549.886 126.02 560.586 128.254 550.996 135.949C541.406 143.644 507.336 170.087 507.336 170.087C507.336 170.087 519.953 178.244 517.557 190.102L556.031 169.104L562.875 135.495C562.875 135.495 563.636 125.394 549.886 126.02Z" fill="#575A89"/>
<path opacity="0.1" d="M487.381 159.793C487.381 159.793 489.715 164.069 500.02 171.778C500.02 171.778 482.863 180.717 489.426 193.283L463.181 186.579L459.143 174.221L487.381 159.793Z" fill="black"/>
<path d="M486.369 158.81C486.369 158.81 488.704 163.085 499.009 170.795C499.009 170.795 481.852 179.689 488.415 192.292L462.178 185.588L458.139 173.238L486.369 158.81Z" fill="#575A89"/>
<path opacity="0.1" d="M554.768 180.262L537.611 219.473L522.508 245.5H474.034L459.904 209.916L465.623 173.015H475.912C475.745 181.626 478.954 191.741 478.749 195.503C478.399 201.685 488.164 235.041 488.164 235.041C488.164 235.041 508.598 202.669 516.667 199.786C521.74 197.976 532.486 182.914 539.779 171.95L554.768 180.262Z" fill="black"/>
<path d="M622.354 386.603L620.612 388.749C620.612 388.749 633.229 450.775 629.738 464.861C629.145 467.4 628.806 469.99 628.727 472.593V472.705C628.111 487.036 632.529 505.636 632.529 505.636C632.529 505.636 636.058 560.46 634.05 583.007H397.824C396.44 549.666 394.95 506.47 396.303 501.681C398.585 493.778 403.148 465.107 403.148 465.107L403.65 451.52C403.65 451.52 403.65 438.388 404.06 423.758C404.235 417.181 404.494 410.276 404.866 404.153C405.346 396.451 406.015 389.963 406.935 386.775C407.502 384.358 407.828 381.893 407.908 379.415C407.908 379.184 407.908 378.946 407.954 378.708C407.954 377.963 408.03 377.158 408.061 376.331C408.061 376.1 408.061 375.87 408.061 375.586C408.205 370.789 408.152 365.098 407.992 359.199C407.992 358.879 407.992 358.551 407.992 358.223C407.863 353.799 407.673 349.285 407.46 344.994C406.798 331.586 405.939 320.249 405.939 320.249L376.926 226.095L384.744 207.235L406.441 194.214L446.557 170.49C466.125 154.735 479.007 156.627 483.92 158.355C484.397 158.515 484.865 158.701 485.32 158.914C485.472 158.988 485.593 159.048 485.707 159.115C485.864 159.188 486.014 159.272 486.156 159.368C484.811 160.002 483.642 160.945 482.749 162.117C481.743 163.45 481.026 164.971 480.643 166.586C480.386 167.587 480.205 168.606 480.103 169.633C480.004 170.713 479.966 171.83 479.966 172.955C480.02 175.422 480.236 177.882 480.612 180.322C480.612 180.367 480.612 180.426 480.612 180.486C480.863 182.229 481.175 183.935 481.479 185.536C481.476 185.563 481.476 185.591 481.479 185.618C481.829 187.488 482.179 189.216 482.415 190.706C482.46 190.974 482.498 191.22 482.536 191.451C482.704 192.435 482.783 193.432 482.772 194.43C482.858 196.84 483.189 199.236 483.761 201.581C483.958 202.564 484.186 203.615 484.437 204.71C484.78 206.199 485.152 207.823 485.555 209.477C485.776 210.386 486.012 211.324 486.255 212.255C486.346 212.628 486.445 213 486.536 213.38L486.689 213.969C488.308 220.278 490.065 226.557 491.145 230.356C491.784 232.591 492.187 233.969 492.187 233.969C492.187 233.969 503.64 215.831 512.781 205.507C512.918 205.358 513.04 205.216 513.169 205.082C514.074 204.062 514.964 203.13 515.816 202.311C517.679 200.494 519.352 199.197 520.698 198.721C520.985 198.618 521.262 198.491 521.527 198.341C525.269 196.263 531.307 188.717 536.957 180.814C537.513 180.069 538.053 179.257 538.6 178.49C539.855 176.717 541.072 174.936 542.22 173.231C543.102 171.927 543.946 170.661 544.745 169.454C548.547 163.659 551.224 159.339 551.224 159.339L556.502 159.108L557.422 159.063H558.038L582.002 157.975C582.002 157.975 583.036 158.147 584.74 158.482C584.831 158.482 584.922 158.482 585.021 158.542C593.523 160.195 617.144 165.432 618.589 172.694C620.354 181.588 658.455 193.454 658.455 193.454C658.957 199.413 668.288 203.339 668.288 203.339C668.288 203.339 682.418 239.913 678.638 254.245C674.904 268.397 688.357 303.407 688.715 304.39L686.137 307.578L622.354 386.603Z" fill="#E8F5FF"/>
<path opacity="0.1" d="M548.852 125.394C548.852 125.394 572.176 118.914 577.477 132.255C582.777 145.595 594.634 199.473 594.634 199.473C594.634 199.473 563.849 205.157 555.78 199.473C551.047 196.1 545.189 194.6 539.376 195.272L521.968 206.885L516.827 205.395C516.827 205.395 544.676 164.843 550.73 151.063C556.784 137.282 558.829 131.122 548.852 125.394Z" fill="black"/>
<path d="M547.84 122.415C547.84 122.415 571.18 115.934 576.503 129.275C581.827 142.616 593.66 196.494 593.66 196.494C593.66 196.494 562.883 202.177 554.806 196.494C550.076 193.12 544.221 191.62 538.41 192.292L520.987 203.905L515.846 202.415C515.846 202.415 543.695 161.864 549.749 148.083C555.803 134.303 557.818 128.158 547.84 122.415Z" fill="#E8F5FF"/>
<path opacity="0.1" d="M391.276 337.351C391.276 337.351 408.684 341.553 411.97 351.191C415.255 360.83 399.102 361.076 399.102 361.076C399.102 361.076 389.261 344.026 391.276 337.351Z" fill="black"/>
<path opacity="0.1" d="M456.116 408.518C456.116 408.518 413.483 494.023 423.324 502.18C433.165 510.336 456.116 408.518 456.116 408.518Z" fill="black"/>
<path opacity="0.1" d="M514.903 345.508C514.903 345.508 548.966 428.563 542.152 441.39C535.338 454.217 556.784 441.39 556.784 441.39L514.903 345.508Z" fill="black"/>
<path d="M562.335 427.55C562.335 427.55 447.287 432.987 480.848 468.079C514.409 503.171 583.279 469.569 583.279 469.569L562.335 427.55Z" fill="#FFC1C7"/>
<path opacity="0.1" d="M545.688 93.9376C545.698 102.02 544.078 110.024 540.92 117.491C539.863 117.61 538.805 117.685 537.786 117.729C536.265 114.459 537.079 110.683 537.11 107.085C537.14 103.487 535.786 99.2561 532.25 98.2877C525.2 96.3436 520.333 109.252 513.382 106.921C508.058 105.148 509.45 97.2374 506.385 92.6713C503.959 89.0586 499.1 88.0381 495.32 85.7736C487.282 80.9393 487.525 73.2074 483.791 65.8926C479.882 58.2277 471.623 60.4922 464.451 65.0137C459.006 68.455 454.306 73.0659 448.481 75.807C443.439 78.1907 437.773 79.0548 432.184 79.1814C428.742 79.312 425.3 78.9558 421.962 78.1236C425.888 63.6683 435.048 51.1049 447.733 42.7764C460.418 34.4478 475.763 30.9226 490.906 32.8582C506.049 34.7939 519.956 42.0581 530.035 53.2964C540.113 64.5346 545.674 78.9796 545.68 93.9376H545.688Z" fill="black"/>
<path d="M464.474 63.0397C459.022 66.4811 454.329 71.0845 448.504 73.8406C443.462 76.2167 437.796 77.0808 432.206 77.2074C425.362 77.3564 417.993 76.1795 413.316 71.3377C409.019 66.8684 407.992 59.9931 409.81 54.1309C411.627 48.2686 415.985 43.4045 421.103 39.8812C426.221 36.3579 432.161 33.9221 435.553 28.8792C437.347 26.2125 438.214 23.0691 439.705 20.2311C444.473 11.151 455.196 6.2347 465.562 5.62389C475.927 5.01309 486.202 8.03732 496.073 11.3148C505.944 14.5923 515.892 18.1976 526.31 18.8754C530.95 19.1585 535.771 18.8754 540.075 20.5961C545.863 22.8978 549.658 28.4025 552.243 34.0041C555.141 40.3207 556.943 47.2183 556.639 54.116C556 68.8424 546.068 83.2932 550.433 97.4013C551.589 101.163 553.757 105.021 552.601 108.783C550.913 114.273 543.68 115.524 537.832 115.785C536.311 112.515 537.125 108.731 537.155 105.141C537.186 101.55 535.832 97.3119 532.303 96.3436C525.246 94.4143 520.379 107.301 513.443 104.977C508.157 103.197 509.526 95.2933 506.454 90.7271C504.028 87.107 499.161 86.0939 495.389 83.8295C487.35 78.9952 487.593 71.2633 483.859 63.9485C479.92 56.2463 471.653 58.5108 464.474 63.0397Z" fill="#99607E"/>
<path d="M352.917 346.491L347.114 348.473C347.114 348.473 349.396 382.082 341.791 391.721C334.186 401.36 366.766 425.323 366.766 425.323C366.766 425.323 411.422 425.077 412.684 421.598C413.947 418.119 410.403 359.326 410.403 359.326C410.403 359.326 386.432 350.178 388.447 335.601C388.447 335.601 381.131 369.948 370.287 368.465C359.442 366.983 347.129 358.111 352.917 346.491Z" fill="#E8F5FF"/>
<path opacity="0.1" d="M372.272 378.864C380.726 378.864 387.58 372.724 387.58 365.151C387.58 357.577 380.726 351.437 372.272 351.437C363.817 351.437 356.963 357.577 356.963 365.151C356.963 372.724 363.817 378.864 372.272 378.864Z" fill="black"/>
<path d="M389.01 347.482C389.01 347.482 385.968 256.546 359.488 276.807C333.007 297.068 332.748 321.299 337.79 328.458C342.833 335.616 359.001 371.452 359.001 371.452C361.53 372.888 364.37 373.716 367.289 373.869C370.208 374.023 373.122 373.496 375.794 372.333C378.465 371.171 380.817 369.404 382.657 367.18C384.496 364.955 385.772 362.335 386.379 359.534L389.01 347.482Z" fill="#FFC1C7"/>
<path opacity="0.1" d="M554.198 117.141C554.074 116.741 553.837 116.385 553.513 116.113C552.205 114.943 549.392 114.534 545.148 114.891L545.323 116.858C550.981 116.381 552.099 117.483 552.243 117.67V117.856L552.418 118.102C553.124 119.03 553.624 120.093 553.885 121.222C554.147 122.351 554.166 123.521 553.939 124.657C552.7 130.728 545.087 135.562 545.011 135.614L544.829 135.718L544.714 135.89C541.429 140.664 522.85 154.139 517.991 157.625L517.565 157.149C515.39 158.996 496.271 175.391 495.236 181.67C494.567 185.611 490.035 187.138 488.392 187.562C486.658 186.274 481.03 181.886 478.102 176.97C475.357 172.344 486.407 163.316 487.381 159.793L485.86 158.266C485.7 158.832 471.509 171.823 475.456 178.46C478.62 183.786 484.399 188.344 486.422 189.849C485.776 195.6 481.753 229.365 475.57 237.365C467.889 247.31 461.432 297.426 462.147 314.923C462.778 330.469 458.634 359.832 444.793 372.443C442.396 374.722 439.506 376.442 436.336 377.473C433.166 378.505 429.8 378.823 426.487 378.402H426.32H426.153C425.955 378.402 405.878 380.413 389.01 366.484C375.207 355.11 367.389 336.547 365.762 311.295H365.427L365.29 303.943C369.033 303.371 372.403 301.401 374.693 298.445C376.983 295.49 378.015 291.781 377.571 288.096C377.128 284.412 375.243 281.039 372.314 278.687C369.385 276.335 365.639 275.186 361.863 275.483C358.087 275.779 354.576 277.497 352.067 280.276C349.557 283.055 348.245 286.679 348.406 290.386C348.567 294.092 350.189 297.594 352.93 300.154C355.672 302.714 359.32 304.134 363.107 304.115H363.275L363.412 311.422L362.742 311.467C364.416 337.538 372.629 356.823 387.078 368.733C398.061 377.647 412.09 382.144 426.328 381.315C427.338 381.423 428.353 381.478 429.37 381.478C435.896 381.511 442.175 379.038 446.861 374.588C461.44 361.292 465.874 330.849 465.182 314.774C464.421 296.234 471.197 247.92 477.996 239.123C484.658 230.49 488.696 196.851 489.403 190.333C491.814 189.67 497.267 187.577 498.195 182.14C498.864 178.207 511.633 166.087 519.489 159.376L519.253 159.108C523.481 156.083 536.63 146.549 543.148 140.426C545.171 138.526 547.178 136.627 549.277 134.817C551.802 132.627 555.012 129.148 555.856 125.037C556.144 123.679 556.145 122.279 555.86 120.921C555.575 119.563 555.009 118.277 554.198 117.141Z" fill="black"/>
<path d="M486.164 189.38C485.844 189.164 478.27 183.853 474.475 177.462C470.536 170.825 484.726 157.841 484.878 157.275L486.399 158.802C485.434 162.318 474.384 171.354 477.129 175.972C480.589 181.804 487.875 186.907 487.951 186.959L486.164 189.38Z" fill="#353146"/>
<path d="M517.002 159.07L515.816 157.469C516.059 157.298 539.946 140.374 543.711 134.899L543.832 134.735L544.007 134.623C544.083 134.571 551.696 129.744 552.935 123.666C553.164 122.531 553.147 121.362 552.885 120.234C552.623 119.106 552.122 118.045 551.414 117.118L551.24 116.865V116.686C551.087 116.493 549.97 115.398 544.311 115.874L544.137 113.901C548.388 113.543 551.194 113.953 552.502 115.122C552.828 115.397 553.067 115.755 553.194 116.158C554.016 117.29 554.593 118.576 554.889 119.935C555.184 121.294 555.192 122.698 554.913 124.061C554.069 128.18 550.867 131.659 548.334 133.841C546.243 135.651 544.228 137.566 542.212 139.45C534.569 146.623 517.838 158.482 517.002 159.07Z" fill="#E8F5FF"/>
<path d="M364.309 301.35L362.294 301.386L362.518 313.384L364.533 313.348L364.309 301.35Z" fill="#E8F5FF"/>
<path d="M362.126 303.169C370.254 303.169 376.842 296.715 376.842 288.755C376.842 280.795 370.254 274.342 362.126 274.342C353.999 274.342 347.411 280.795 347.411 288.755C347.411 296.715 353.999 303.169 362.126 303.169Z" fill="#6C63FF"/>
<path d="M362.126 300.725C368.876 300.725 374.348 295.366 374.348 288.755C374.348 282.144 368.876 276.785 362.126 276.785C355.377 276.785 349.905 282.144 349.905 288.755C349.905 295.366 355.377 300.725 362.126 300.725Z" fill="#E8F5FF"/>
<path d="M428.411 380.518C427.395 380.519 426.38 380.467 425.37 380.361C411.132 381.182 397.107 376.687 386.12 367.78C371.671 355.862 363.473 336.599 361.784 310.506L364.826 310.32C366.454 335.571 374.272 354.141 388.082 365.508C404.95 379.4 425.02 377.426 425.217 377.426H425.385H425.552C428.865 377.845 432.233 377.526 435.403 376.495C438.573 375.463 441.466 373.745 443.865 371.467C457.698 358.856 461.843 329.493 461.212 313.947C460.451 296.435 466.908 246.319 474.597 236.382C481.327 227.674 485.502 188.426 485.548 188.032L485.662 186.914L486.787 186.721C486.856 186.721 493.426 185.499 494.248 180.687C495.313 174.415 514.401 158.02 516.568 156.165L518.553 158.4C510.667 165.104 497.898 177.231 497.259 181.171C496.332 186.624 490.879 188.709 488.476 189.365C487.715 195.89 483.707 229.522 477.068 238.155C470.269 246.952 463.493 295.265 464.254 313.806C464.908 329.88 460.52 360.331 445.941 373.62C441.247 378.081 434.952 380.558 428.411 380.518Z" fill="#353146"/>
<g opacity="0.1">
<path opacity="0.1" d="M552.167 76.3285C553.415 71.8145 554.92 67.2707 555.97 62.6971C554.715 67.293 553.202 71.8145 552.167 76.3285Z" fill="black"/>
<path opacity="0.1" d="M539.444 111.8C537.923 108.53 538.737 104.746 538.767 101.156C538.798 97.5652 537.444 93.364 533.915 92.3584C526.858 90.4292 521.991 103.323 515.055 100.992C509.732 99.2114 511.138 91.3081 508.066 86.742C505.64 83.1218 500.78 82.1088 497.008 79.8443C488.962 75.01 489.206 67.2781 485.479 59.9633C481.563 52.291 473.311 54.5555 466.132 59.0844C460.679 62.5257 455.987 67.1366 450.162 69.8852C445.12 72.2614 439.454 73.1255 433.864 73.2521C427.058 73.4085 419.651 72.2242 414.973 67.3824C411.369 63.658 410.068 58.1979 410.814 53.0806C410.684 53.4307 410.57 53.7808 410.456 54.1309C408.631 59.9931 409.696 66.8833 413.962 71.3377C418.639 76.1795 426.046 77.3564 432.853 77.2074C438.45 77.0808 444.108 76.2167 449.158 73.8406C454.998 71.0845 459.691 66.4811 465.128 63.0397C472.307 58.5108 480.566 56.2464 484.475 63.9187C488.202 71.2335 487.966 78.9654 496.005 83.7997C499.807 86.0344 504.636 87.0772 507.07 90.6973C510.112 95.2784 508.766 103.167 514.059 104.947C520.987 107.271 525.854 94.3845 532.912 96.3138C536.44 97.2821 537.802 101.528 537.764 105.111C537.725 108.694 536.935 112.485 538.44 115.755C544.289 115.495 551.521 114.266 553.217 108.753C553.45 107.962 553.558 107.141 553.536 106.318C551.065 110.496 544.707 111.569 539.444 111.8Z" fill="black"/>
</g>
<path opacity="0.1" d="M676.889 295.34L685.719 304.487C685.719 304.487 692.784 354.894 696.312 359.609C699.841 364.324 708.176 383.08 700.35 397.166C700.35 397.166 697.826 404.831 699.339 408.041C700.852 411.252 687.992 427.319 687.992 427.319C687.992 427.319 671.087 442.142 667.55 444.369C664.014 446.596 645.351 464.384 639.047 464.63C632.742 464.876 630.681 472.541 630.681 472.541L595.105 473.777C595.105 473.777 575.454 472.772 571.18 475.491C571.18 475.491 573.461 446.083 551.506 426.805L579.507 416.92C579.507 416.92 590.109 412.451 593.386 407.78C595.448 404.917 598.374 402.758 601.752 401.605C601.752 401.605 609.57 396.168 609.821 393.203C610.072 390.238 619.38 386.603 619.38 386.603L614.11 342.543L616.886 269.396C616.886 269.396 625.715 208.106 644.385 211.57C663.056 215.034 676.889 295.34 676.889 295.34Z" fill="black"/>
<path d="M679.931 295.34L688.76 304.487C688.76 304.487 695.825 354.894 699.354 359.609C702.883 364.324 711.218 383.08 703.392 397.166C703.392 397.166 700.875 404.831 702.389 408.041C703.902 411.252 691.034 427.319 691.034 427.319C691.034 427.319 674.128 442.142 670.592 444.369C667.056 446.596 648.393 464.384 642.089 464.63C635.784 464.876 633.723 472.541 633.723 472.541L598.147 473.777C598.147 473.777 578.481 472.772 574.222 475.491C574.222 475.491 576.503 446.083 554.548 426.805L582.549 416.92C582.549 416.92 593.151 412.451 596.428 407.78C598.49 404.917 601.416 402.758 604.794 401.605C604.794 401.605 612.612 396.168 612.863 393.203C613.114 390.238 622.422 386.603 622.422 386.603L617.152 342.543L619.928 269.396C619.928 269.396 628.757 208.106 647.427 211.57C666.098 215.034 679.931 295.34 679.931 295.34Z" fill="#E8F5FF"/>
<path opacity="0.1" d="M647.108 369.233C647.108 369.233 673.094 362.529 679.908 370.722C686.722 378.916 647.108 369.233 647.108 369.233Z" fill="black"/>
<path opacity="0.1" d="M641.054 380.473C649.884 386.529 677.132 386.775 677.132 386.775L641.054 380.473Z" fill="black"/>
<path opacity="0.1" d="M654.424 410.745C655.184 410.991 673.155 429.777 680.699 424.093C688.243 418.41 654.424 410.745 654.424 410.745Z" fill="black"/>
<path opacity="0.1" d="M412.403 253.083C412.403 253.083 417.681 288.673 415.08 303.169C412.479 317.664 421.97 335.623 421.97 335.623L412.403 253.083Z" fill="black"/>
<path d="M295.56 267.556C289.476 272.226 285.035 283.28 281.818 295.429C276.205 316.621 274.373 341.195 274.373 341.195C274.373 341.195 225.929 330.32 229.458 325.381C231.678 322.275 228.697 298.871 226.21 281.902C224.727 271.876 223.404 264.092 223.404 264.092C223.404 264.092 312.215 254.699 295.56 267.556Z" fill="#FFCCD0"/>
<path opacity="0.1" d="M295.56 266.565C289.476 271.243 285.035 282.289 281.818 294.439C272.166 297.309 261.901 297.568 252.111 295.188C242.321 292.808 233.371 287.877 226.21 280.919C224.727 270.885 223.404 263.101 223.404 263.101C223.404 263.101 312.215 253.716 295.56 266.565Z" fill="black"/>
<path d="M321.599 239.943C321.605 252.899 316.93 265.439 308.403 275.343C299.876 285.248 288.047 291.879 275.008 294.062C261.97 296.245 248.563 293.84 237.161 287.272C225.759 280.705 217.097 270.398 212.708 258.176C208.318 245.954 208.485 232.606 213.177 220.493C217.87 208.379 226.787 198.283 238.349 191.99C249.911 185.697 263.373 183.613 276.354 186.107C289.334 188.601 300.994 195.513 309.272 205.618C317.248 215.353 321.597 227.461 321.599 239.943Z" fill="#FFCCD0"/>
<path opacity="0.1" d="M365.769 583.007H349.799L348.453 555.38L347.046 526.783C347.046 526.783 350.673 526.255 356.453 525.465L358.788 525.16H358.978C360.24 530.962 361.488 536.921 362.689 542.873C364.689 553.439 365.73 564.157 365.8 574.903C365.8 575.648 365.8 576.393 365.8 577.093C365.845 579.082 365.8 581.071 365.769 583.007Z" fill="black"/>
<path d="M362.704 583.007H162.42C163.287 581.078 163.865 579.909 163.865 579.909C163.865 579.909 179.888 511.245 188.033 482.195C188.036 482.17 188.036 482.145 188.033 482.12C189.051 478.174 190.279 474.283 191.714 470.463C191.807 470.203 191.926 469.953 192.071 469.718C196.102 463.297 201.152 456.377 194.087 446.492C187.022 436.608 189.524 393.114 189.524 393.114C189.524 393.114 198.102 356.041 207.183 336.271C208.561 333.209 210.516 330.429 212.947 328.078C213.737 327.32 214.581 326.618 215.472 325.977C216.149 325.479 216.855 325.018 217.586 324.599L217.731 324.51C221.545 322.391 225.781 321.103 230.15 320.733C233.253 320.415 236.385 320.5 239.466 320.986C254.189 323.102 265.977 326.64 275.346 330.67C300.739 341.597 308.428 356.242 308.58 356.547L308.641 356.674C309.66 359.005 324.565 393.091 329.935 408.995C331.326 413.136 332.087 416.049 331.783 416.846C330.262 420.794 343.388 470.217 343.388 470.217C343.388 470.217 349.472 494.053 355.556 521.994C355.822 523.156 356.073 524.318 356.316 525.495C357.404 530.567 358.484 535.737 359.526 540.899C361.544 551.538 362.585 562.332 362.636 573.153C362.748 576.524 362.77 579.809 362.704 583.007Z" fill="#FF748E"/>
<path opacity="0.1" d="M228.956 303.735C228.956 303.735 215.137 298.521 215.305 306.431C215.472 314.342 218.674 318.126 217.662 319.281C216.651 320.435 218.164 327.355 218.164 327.355C218.164 327.355 236.834 327.355 245.413 331.139C253.991 334.923 285.613 342.506 289.651 344.815C293.689 347.124 308.663 357.478 308.663 357.478L310.01 337.873C310.01 337.873 294.533 325.351 269.14 318.93C243.747 312.51 228.956 303.735 228.956 303.735Z" fill="black"/>
<path d="M228.956 302.744C228.956 302.744 215.137 297.53 215.305 305.441C215.472 313.351 218.674 317.135 217.662 318.29C216.651 319.444 218.164 326.364 218.164 326.364C218.164 326.364 236.834 326.364 245.413 330.156C253.991 333.947 285.613 341.523 289.651 343.825C293.689 346.126 308.663 356.488 308.663 356.488L310.025 336.942C310.025 336.942 294.549 324.42 269.156 317.999C243.762 311.578 228.956 302.744 228.956 302.744Z" fill="#FF748E"/>
<path opacity="0.1" d="M270.669 349.925C270.669 349.925 297.073 377.925 295.727 385.68C294.381 393.434 270.669 349.925 270.669 349.925Z" fill="black"/>
<path opacity="0.1" d="M227.777 451.073C227.777 451.073 208.422 468.541 202.718 469.532C197.015 470.522 207.091 473.815 213.647 471.185C220.202 468.556 234.18 461.636 234.18 461.636L227.777 451.073Z" fill="black"/>
<path d="M370.568 583.007H325.432C319.12 577.644 313.15 572.676 309.348 569.689C303.264 564.907 298.876 557.868 296.077 552.206C295.446 550.918 294.898 549.711 294.435 548.616C293.604 546.73 292.873 544.803 292.244 542.843L325.668 523.402C327.515 524.94 329.251 526.603 330.862 528.378L331.265 528.832C333.121 530.977 334.756 533.413 334.901 535.409C335.068 537.733 341.669 546.724 348.415 555.357C355.259 564.139 362.271 572.534 362.735 573.1C362.735 573.1 363.891 574.642 365.777 577.011C367.108 578.724 368.75 580.78 370.568 583.007Z" fill="#FFCCD0"/>
<path opacity="0.1" d="M309.272 205.618C307.667 209.164 306.23 212.844 306.017 216.792C305.416 228.188 306.39 253.671 293.507 259.392C287.126 262.207 280.297 256.025 273.3 255.876C268.266 255.772 263.65 258.9 260.577 262.811C257.505 266.721 255.596 271.362 253.368 275.787C251.339 279.803 249.003 283.662 246.379 287.332C245.594 288.456 244.73 289.523 243.793 290.528C235.937 287.281 228.942 282.321 223.34 276.025C217.739 269.73 213.678 262.264 211.468 254.199C209.258 246.133 208.956 237.68 210.587 229.483C212.217 221.286 215.737 213.561 220.877 206.898C226.017 200.235 232.642 194.809 240.247 191.034C247.852 187.259 256.237 185.234 264.762 185.113C273.288 184.993 281.729 186.78 289.442 190.338C297.155 193.897 303.938 199.133 309.272 205.648V205.618Z" fill="black"/>
<path d="M305.005 214.78C304.397 226.177 305.378 251.66 292.488 257.373C286.107 260.189 279.278 254.014 272.281 253.865C267.247 253.753 262.638 256.889 259.558 260.792C256.478 264.695 254.584 269.343 252.349 273.775C250.32 277.791 247.983 281.651 245.36 285.321C243.793 287.496 242.059 289.679 239.648 290.9C235.45 293.046 230.363 291.839 225.86 290.461C220.02 288.658 214.265 286.627 208.597 284.368C208.727 283.53 208.793 282.683 208.795 281.835C208.627 282.148 208.445 282.438 208.262 282.751L207.905 283.362C207.259 284.479 206.627 285.597 206.049 286.744C205.829 287.183 205.616 287.638 205.426 288.092C204.661 289.783 204.181 291.584 204.004 293.426C203.616 298.394 206.118 303.109 208.339 307.578C216.879 324.867 222.157 345.083 215.731 363.221C212.947 371.11 208.126 378.119 204.604 385.739C198.449 399.236 196.637 414.249 199.41 428.779C201.167 437.807 204.688 446.745 203.821 455.9C202.3 471.654 188.429 483.379 174.534 491.439C167.028 495.774 157.841 499.632 149.871 496.206C154.952 490.396 156.26 482.358 157.355 474.776C160.351 454.092 163.355 433.4 166.367 412.697C167.568 404.458 168.767 396.22 169.964 387.981C172.2 372.503 174.466 356.853 173.067 341.277C172.048 329.798 169.173 317.612 174.253 307.221C176.938 301.716 181.721 297.157 183.212 291.228C184.436 286.409 183.295 281.284 184.101 276.375C184.543 274.142 185.29 271.977 186.322 269.939C187.637 267.174 189.353 264.61 191.417 262.327C189.379 261.746 187.478 260.949 186.322 259.28C189.592 257.194 190.087 252.494 188.604 248.963C187.121 245.433 184.155 242.743 181.485 239.958C178.816 237.172 176.245 233.924 175.911 230.125C175.264 222.892 182.641 217.291 183.942 210.155C185.257 202.892 180.056 195.831 180.474 188.479C180.961 179.592 189.296 173.134 197.524 169.387C209.942 163.757 223.658 161.444 237.283 162.683C248.371 163.711 259.102 167.071 270.159 168.374C276.829 169.119 283.59 169.193 290.214 170.341C296.838 171.488 303.477 173.909 308.139 178.668C320.428 191.22 305.705 201.551 305.005 214.78Z" fill="#FFE0D0"/>
<path opacity="0.1" d="M294.724 552.214C290.845 550.568 283.788 551.551 271.673 547.938C259.558 544.326 257.223 527.998 257.223 527.998V527.945C257.079 527.573 255.953 525.145 248.333 516.638C239.914 507.245 221.716 459.803 221.716 459.803C221.716 459.803 205.578 442.827 206.087 436.57C206.597 430.313 203.22 413.665 203.555 395.043C203.89 376.421 239.884 364.071 239.884 364.071C309.188 352.041 292.868 430.298 291.02 436.228C289.172 442.157 298.762 458.172 298.762 458.172C297.408 465.144 304.313 475.938 304.313 475.938C304.313 475.938 305.986 485.487 306.329 489.115C306.348 489.282 306.386 489.447 306.443 489.606C307.553 493.025 316.603 496.124 320.284 498.008C324.155 499.99 336.604 517.286 336.604 517.286C339.289 529.986 298.587 553.882 294.724 552.214Z" fill="black"/>
<path d="M296.739 549.234C292.868 547.581 285.803 548.571 273.696 544.951C261.589 541.331 259.246 525.018 259.246 525.018V524.966C259.109 524.586 257.976 522.165 250.356 513.659C241.937 504.266 223.739 456.816 223.739 456.816C223.739 456.816 207.601 439.848 208.103 433.591C208.605 427.334 205.243 410.686 205.578 392.078C205.913 373.471 241.884 361.128 241.884 361.128C311.188 349.098 294.868 427.356 293.02 433.285C291.172 439.215 300.762 455.23 300.762 455.23C299.408 462.202 306.313 472.995 306.313 472.995C306.313 472.995 307.987 482.545 308.336 486.172C308.349 486.34 308.385 486.505 308.443 486.664C309.553 490.083 318.603 493.182 322.292 495.066C326.155 497.04 338.612 514.344 338.612 514.344C341.312 527.022 300.61 550.918 296.739 549.234Z" fill="#FF748E"/>
<path opacity="0.1" d="M243.253 401.985C243.253 401.985 273.528 433.27 281.43 433.27C289.332 433.27 243.253 401.985 243.253 401.985Z" fill="black"/>
<path d="M296.739 549.234C292.868 547.581 285.803 548.571 273.696 544.951C261.589 541.331 259.246 525.018 259.246 525.018V524.966C267.27 519.752 287.59 505.025 295.598 499.64C301.233 495.863 305.834 490.314 308.527 486.634C309.637 490.053 318.687 493.152 322.375 495.036C326.239 497.01 338.695 514.314 338.695 514.314C341.312 527.022 300.61 550.918 296.739 549.234Z" fill="#FF748E"/>
<g opacity="0.1">
<path opacity="0.1" d="M186.368 259.362C186.406 259.421 186.459 259.474 186.505 259.533C186.733 259.25 186.968 258.967 187.212 258.699C186.953 258.946 186.67 259.168 186.368 259.362Z" fill="black"/>
<path opacity="0.1" d="M204.011 293.507C204.331 289.373 206.589 285.731 208.704 282.096C207.319 281.574 205.935 281.046 204.566 280.494C204.697 279.659 204.763 278.815 204.764 277.969C202.627 281.694 200.3 285.358 199.973 289.552C199.585 294.528 202.087 299.236 204.308 303.705C212.856 320.986 218.126 341.203 211.7 359.348C208.909 367.229 204.095 374.246 200.574 381.866C194.421 395.36 192.612 410.371 195.387 424.898C197.129 433.933 200.657 442.865 199.79 452.019C198.269 467.774 184.406 479.498 170.504 487.55C164.823 490.843 158.184 493.859 151.833 493.643C151.246 494.57 150.59 495.454 149.871 496.288C157.849 499.737 167.028 495.856 174.534 491.506C188.444 483.461 202.338 471.766 203.859 455.982C204.726 446.827 201.197 437.896 199.448 428.861C196.672 414.335 198.476 399.326 204.62 385.829C208.118 378.216 212.985 371.192 215.746 363.311C222.172 345.165 216.894 324.949 208.354 307.668C206.141 303.169 203.623 298.483 204.011 293.507Z" fill="black"/>
<path opacity="0.1" d="M308.123 178.758C307.375 178.006 306.572 177.309 305.72 176.672C314.938 188.382 301.629 198.333 300.967 210.937C300.374 222.334 301.347 247.824 288.457 253.529C282.084 256.353 275.247 250.17 268.258 250.021C263.216 249.917 258.607 253.053 255.527 256.956C252.447 260.859 250.554 265.507 248.326 269.932C246.293 273.947 243.954 277.807 241.329 281.478C239.808 283.66 238.028 285.835 235.61 287.064C231.427 289.202 226.339 288.003 221.83 286.617C217.444 285.267 213.099 283.777 208.795 282.148C208.786 282.924 208.72 283.698 208.597 284.465C214.27 286.729 220.027 288.76 225.868 290.558C230.37 291.943 235.458 293.142 239.648 291.005C242.059 289.776 243.808 287.593 245.367 285.411C247.994 281.745 250.331 277.887 252.356 273.872C254.592 269.448 256.478 264.792 259.566 260.889C262.653 256.986 267.254 253.857 272.289 253.961C279.285 254.11 286.122 260.293 292.495 257.47C305.386 251.764 304.405 226.274 305.005 214.877C305.705 201.626 320.428 191.302 308.123 178.758Z" fill="black"/>
</g>
<path opacity="0.1" d="M207.913 283.37C207.266 284.487 206.635 285.604 206.057 286.751C205.836 287.191 205.624 287.645 205.433 288.1C201.448 284.167 191.744 274.818 186.33 271.921C187.646 269.157 189.362 266.593 191.425 264.308C191.425 264.308 204.331 270.99 207.913 283.37Z" fill="black"/>
<path d="M208.27 282.759C205.281 269.507 191.425 262.334 191.425 262.334C189.361 264.618 187.644 267.182 186.33 269.947C192.041 273.008 202.566 283.273 206.057 286.751L208.27 282.759Z" fill="#FF748E"/>
</g>
<defs>
<linearGradient id="paint0_linear_5_4" x1="555.187" y1="71.0696" x2="555.187" y2="57.3786" gradientUnits="userSpaceOnUse">
<stop stop-color="#808080" stop-opacity="0.25"/>
<stop offset="0.54" stop-color="#808080" stop-opacity="0.12"/>
<stop offset="1" stop-color="#808080" stop-opacity="0.1"/>
</linearGradient>
<linearGradient id="paint1_linear_5_4" x1="428.031" y1="583.008" x2="428.031" y2="0.000234225" gradientUnits="userSpaceOnUse">
<stop stop-color="#808080" stop-opacity="0.25"/>
<stop offset="0.54" stop-color="#808080" stop-opacity="0.12"/>
<stop offset="1" stop-color="#808080" stop-opacity="0.1"/>
</linearGradient>
<clipPath id="clip0_5_4">
<rect width="826" height="583" fill="white"/>
</clipPath>
</defs>
</svg>
